<svg width="32" height="22" viewBox="0 0 32 22" fill="none" xmlns="http://www.w3.org/2000/svg">
<path d="M0 3C0 1.34315 1.34315 0 3 0H29C30.6569 0 32 1.34315 32 3V3C32 4.65685 30.6569 6 29 6H3C1.34315 6 0 4.65685 0 3V3Z" fill="#DABE6F"/>
<path d="M0 11C0 9.34315 1.34315 8 3 8H29C30.6569 8 32 9.34315 32 11V11C32 12.6569 30.6569 14 29 14H3C1.34315 14 0 12.6569 0 11V11Z" fill="#E0CE9C"/>
<path d="M0 19C0 17.3431 1.34315 16 3 16H29C30.6569 16 32 17.3431 32 19V19C32 20.6569 30.6569 22 29 22H3C1.34315 22 0 20.6569 0 19V19Z" fill="#DABE6F"/>
</svg>
