<svg width="72" height="72" viewBox="0 0 72 72" fill="none" xmlns="http://www.w3.org/2000/svg">
<path fill-rule="evenodd" clip-rule="evenodd" d="M32.1083 0H39.8917L40.0944 6.2069H47.6752V13.6552H40.3377L40.6941 22.0878C40.8363 21.9275 40.9828 21.7703 41.1338 21.6167C48.2208 14.4088 58.7286 10.5731 66.4853 16.7586C74.2688 22.9655 74.2688 37.2414 63.5518 45.498C57.4811 50.1751 52.0435 54.6839 52.3114 61.2784L63.2155 62.6897V72H8.78448V62.6897L19.6886 61.2784C19.9565 54.6839 14.5189 50.1751 8.44815 45.498C-2.26876 37.2414 -2.26876 22.9655 5.51471 16.7586C13.2714 10.5731 23.7792 14.4088 30.8662 21.6167C31.0172 21.7703 31.1637 21.9275 31.3059 22.0878L31.6623 13.6552H24.3248V6.2069H31.9056L32.1083 0ZM24.7763 28.5184C29.5328 35.9741 30.1624 44.6897 30.1624 48.4799C27.7782 48.484 18.7905 44.7002 14.032 38.4885C10.6062 34.0165 9.71287 27.3817 12.6496 24.8058C15.5863 22.23 21.8034 23.8586 24.7763 28.5184ZM47.2237 28.5184C42.4672 35.9741 41.8376 44.6897 41.8376 48.4799C44.2218 48.484 53.2095 44.7002 57.968 38.4885C61.3938 34.0165 62.2871 27.3817 59.3504 24.8058C56.4137 22.23 50.1966 23.8586 47.2237 28.5184Z" fill="#EEEED2"/>
</svg>
