<svg width="72" height="72" viewBox="0 0 72 72" fill="none" xmlns="http://www.w3.org/2000/svg">
<path d="M53.7142 13.7143C53.7142 17.6918 51.4566 21.2739 47.8499 23.7788L57.1429 28.6988L57.1429 37.7143H48.0454C48.4841 41.8932 52.0591 46.0756 56.6852 49.7236C61.5947 53.595 67.5015 56.7174 71.4242 58.3986L72 58.6454L72 72L0 72L0 58.6454L0.575841 58.3986C4.49852 56.7174 10.4052 53.595 15.3147 49.7236C19.9409 46.0756 23.5159 41.8932 23.9546 37.7143H14.8571V28.6988L23.5121 24.1167C19.6124 21.6017 17.1429 17.8743 17.1429 13.7143C17.1429 6.14009 25.3296 0 35.4286 0C45.5274 0 53.7142 6.14009 53.7142 13.7143Z" fill="#EEEED2"/>
</svg>
