<svg width="38" height="38" viewBox="0 0 38 38" fill="none" xmlns="http://www.w3.org/2000/svg">
<path d="M17.417 6.33334H6.33366C5.49381 6.33334 4.68835 6.66697 4.09449 7.26083C3.50062 7.8547 3.16699 8.66015 3.16699 9.5V31.6667C3.16699 32.5065 3.50062 33.312 4.09449 33.9058C4.68835 34.4997 5.49381 34.8333 6.33366 34.8333H28.5003C29.3402 34.8333 30.1456 34.4997 30.7395 33.9058C31.3334 33.312 31.667 32.5065 31.667 31.6667V20.5833M29.292 3.95834C29.9219 3.32845 30.7762 2.97458 31.667 2.97458C32.5578 2.97458 33.4121 3.32845 34.042 3.95834C34.6719 4.58823 35.0258 5.44254 35.0258 6.33334C35.0258 7.22413 34.6719 8.07845 34.042 8.70834L19.0003 23.75L12.667 25.3333L14.2503 19L29.292 3.95834Z" stroke="#1E1E1E" stroke-width="4" stroke-linecap="round" stroke-linejoin="round"/>
</svg>
