<svg width="48" height="48" viewBox="0 0 48 48" fill="none" xmlns="http://www.w3.org/2000/svg">
<g clip-path="url(#clip0_176_441)">
<path d="M18.7825 0C8.42604 0 0 8.42604 0 18.7825C0 29.139 8.42604 37.565 18.7825 37.565C23.0912 37.565 27.0534 36.091 30.226 33.6418L43.8768 47.2925C44.8201 48.2358 46.3492 48.2358 47.2925 47.2925C48.2358 46.3492 48.2358 44.8201 47.2925 43.8768L33.6418 30.226C36.091 27.0534 37.565 23.0912 37.565 18.7825C37.565 8.42604 29.139 0 18.7825 0ZM18.7825 4.17389C26.8371 4.17389 33.3911 10.7279 33.3911 18.7825C33.3911 26.8371 26.8371 33.3911 18.7825 33.3911C10.7279 33.3911 4.17389 26.8371 4.17389 18.7825C4.17389 10.7279 10.7279 4.17389 18.7825 4.17389Z" fill="#EEEED2"/>
<path fill-rule="evenodd" clip-rule="evenodd" d="M18.1352 10H19.8648L19.9099 11.3793H21.5945V13.0345H19.9639L20.0431 14.9084C20.0747 14.8728 20.1073 14.8378 20.1408 14.8037C21.7157 13.202 24.0508 12.3496 25.7745 13.7241C27.5042 15.1034 27.5042 18.2759 25.1226 20.1107C23.7736 21.15 22.5652 22.152 22.6248 23.6174L25.0479 23.931V26H12.9521V23.931L15.3752 23.6174C15.4348 22.152 14.2264 21.15 12.8774 20.1107C10.4958 18.2759 10.4958 15.1034 12.2255 13.7241C13.9492 12.3496 16.2843 13.202 17.8592 14.8037C17.8927 14.8378 17.9253 14.8728 17.9569 14.9084L18.0361 13.0345H16.4055V11.3793H18.0901L18.1352 10ZM16.5058 16.3374C17.5629 17.9942 17.7028 19.931 17.7028 20.7733C17.1729 20.7742 15.1757 19.9334 14.1182 18.553C13.3569 17.5592 13.1584 16.0848 13.811 15.5124C14.4636 14.94 15.8452 15.3019 16.5058 16.3374ZM21.4942 16.3374C20.4371 17.9942 20.2972 19.931 20.2972 20.7733C20.8271 20.7742 22.8243 19.9334 23.8818 18.553C24.6431 17.5592 24.8416 16.0848 24.189 15.5124C23.5364 14.94 22.1548 15.3019 21.4942 16.3374Z" fill="#9F9F85"/>
</g>
<defs>
<clipPath id="clip0_176_441">
<rect width="48" height="48" fill="white"/>
</clipPath>
</defs>
</svg>
